<svg xmlns="http://www.w3.org/2000/svg" width="256" height="256" id="github">
  <path fill="none" stroke="#000" stroke-linecap="round" stroke-linejoin="round" stroke-miterlimit="10" stroke-width="4" d="M130.164 226.986c63.917-3.557 108.667-52.057 97.259-116.5-9.288-52.47-60.722-87.613-112.739-80.577-52.732 7.132-93.294 55.968-87.298 109.095 5.689 47.857 35.128 70.23 59.685 80.335 5.717 2.353 13.401 5.785 15.997 5.229s1.763-14.95 1.763-21.889c-16 2.459-21.475-3.841-24.875-7.563-3.857-4.222-6.125-8.563-10.063-14.938s-11.063-4.875-11.813-8.563 15-2.688 26.313 11.25c8.188 10.146 16.928 7.089 21.625 4.188a23.954 23.954 0 0 1 1.438-6.188c.967-2.557 3.625-4.104 3.208-5.854-.417-1.75-21.804-.577-34-17.667-8.809-12.344-9.129-26.955-5.667-37.833 2.322-7.297 6.196-12.443 8.833-15.417a27.499 27.499 0 0 1-2.583-11.25 27.539 27.539 0 0 1 2.583-12 46.826 46.826 0 0 1 26.583 9.25 70.705 70.705 0 0 1 21.083-3.667 70.78 70.78 0 0 1 23.667 3.583 41.012 41.012 0 0 1 13.167-7.917 40.83 40.83 0 0 1 11.5-2.417 27.411 27.411 0 0 1 3.167 12.332 27.36 27.36 0 0 1-2.416 11.664c2.867 3.459 7.394 9.875 9.502 18.995.751 3.249 4.857 20.981-6.996 36.24-12.408 15.974-33.06 13.524-33.992 15.73-.932 2.206 3.964 6.297 6.266 14.877 2.302 8.58 1.327 24.979 1.327 24.979"></path>
</svg>
